<svg xmlns="http://www.w3.org/2000/svg" viewBox="0 0 64 64">
  <!-- Stem -->
  <path d="M32 6 Q38 10 36 16" stroke="#4B6646" stroke-width="2" fill="none" stroke-linecap="round"/>
  <!-- Leaf -->
  <path d="M36 10 Q44 6 42 14 Q38 16 36 10Z" fill="#A4CF9C"/>
  <!-- Grape bunch — top row (3) -->
  <circle cx="24" cy="22" r="5.5" fill="#4B6646"/>
  <circle cx="32" cy="22" r="5.5" fill="#4B6646"/>
  <circle cx="40" cy="22" r="5.5" fill="#4B6646"/>
  <!-- Middle row (2) -->
  <circle cx="28" cy="31" r="5.5" fill="#4B6646"/>
  <circle cx="36" cy="31" r="5.5" fill="#4B6646"/>
  <!-- Lower-middle row (2) -->
  <circle cx="24" cy="40" r="5.5" fill="#4B6646"/>
  <circle cx="40" cy="40" r="5.5" fill="#4B6646"/>
  <!-- Bottom (1) -->
  <circle cx="32" cy="49" r="5.5" fill="#4B6646"/>
  <!-- Highlights -->
  <circle cx="22" cy="20" r="1.8" fill="#A4CF9C" opacity="0.5"/>
  <circle cx="30" cy="20" r="1.8" fill="#A4CF9C" opacity="0.5"/>
  <circle cx="38" cy="20" r="1.8" fill="#A4CF9C" opacity="0.5"/>
  <circle cx="26" cy="29" r="1.8" fill="#A4CF9C" opacity="0.5"/>
  <circle cx="34" cy="29" r="1.8" fill="#A4CF9C" opacity="0.5"/>
  <circle cx="22" cy="38" r="1.8" fill="#A4CF9C" opacity="0.5"/>
  <circle cx="38" cy="38" r="1.8" fill="#A4CF9C" opacity="0.5"/>
  <circle cx="30" cy="47" r="1.8" fill="#A4CF9C" opacity="0.5"/>
</svg>
